<?xml version="1.0" encoding="UTF-8"?>
<svg xmlns="http://www.w3.org/2000/svg" version="1.1" width="1727px" height="1619px" style="shape-rendering:geometricPrecision; text-rendering:geometricPrecision; image-rendering:optimizeQuality; fill-rule:evenodd; clip-rule:evenodd" xmlns:xlink="http://www.w3.org/1999/xlink">
<g><path style="opacity:1" fill="#f6831a" d="M 529.5,-0.5 C 532.5,-0.5 535.5,-0.5 538.5,-0.5C 558.5,9.83333 578.5,20.1667 598.5,30.5C 598.369,31.3764 598.702,32.0431 599.5,32.5C 609.411,37.3722 619.245,42.3722 629,47.5C 629.383,46.944 629.883,46.6107 630.5,46.5C 652.473,57.4867 674.473,68.4867 696.5,79.5C 697.667,133.164 697.833,186.83 697,240.5C 658.36,284.307 619.193,327.641 579.5,370.5C 554.283,358.059 529.283,345.392 504.5,332.5C 504.631,331.624 504.298,330.957 503.5,330.5C 484.256,320.961 465.089,311.295 446,301.5C 445.536,302.094 445.369,302.761 445.5,303.5C 440.107,300.385 434.607,297.385 429,294.5C 428.333,233.5 428.333,172.5 429,111.5C 462.337,73.9976 495.837,36.6643 529.5,-0.5 Z"/></g>
<g><path style="opacity:0.886" fill="#f78717" d="M 598.5,30.5 C 609.484,35.3255 620.151,40.6588 630.5,46.5C 629.883,46.6107 629.383,46.944 629,47.5C 619.245,42.3722 609.411,37.3722 599.5,32.5C 598.702,32.0431 598.369,31.3764 598.5,30.5 Z"/></g>
<g><path style="opacity:1" fill="#f6831a" d="M 1555.5,684.5 C 1555.63,683.624 1555.3,682.957 1554.5,682.5C 1536.04,672.938 1517.38,663.938 1498.5,655.5C 1492.16,652.912 1485.99,649.912 1480,646.5C 1479.67,844.167 1479.33,1041.83 1479,1239.5C 1455.01,1251.91 1430.85,1263.91 1406.5,1275.5C 1397.27,1279.1 1387.94,1283.43 1378.5,1288.5C 1377.7,1288.96 1377.37,1289.62 1377.5,1290.5C 1349.15,1305.34 1320.48,1319.67 1291.5,1333.5C 1282.27,1337.1 1272.94,1341.43 1263.5,1346.5C 1262.7,1346.96 1262.37,1347.62 1262.5,1348.5C 1234.15,1363.34 1205.48,1377.67 1176.5,1391.5C 1167.27,1395.1 1157.94,1399.43 1148.5,1404.5C 1147.7,1404.96 1147.37,1405.62 1147.5,1406.5C 1051.47,1455.26 955.305,1503.93 859,1552.5C 652.755,1447.96 446.589,1343.29 240.5,1238.5C 239.667,1033.17 239.167,827.834 239,622.5C 213.333,608.833 187.667,595.167 162,581.5C 161.167,522.164 161.333,462.831 162.5,403.5C 356.604,501.969 550.771,600.302 745,698.5C 869.444,562.313 993.444,425.646 1117,288.5C 1263.58,362.539 1410.08,436.706 1556.5,511C 1557.83,569.099 1557.83,627.266 1556.5,685.5C 1555.89,685.376 1555.56,685.043 1555.5,684.5 Z M 1307.5,1152.5 C 1283.85,1163.66 1260.52,1175.33 1237.5,1187.5C 1231.85,1189.66 1226.52,1192.33 1221.5,1195.5C 1219.83,1102.67 1218.83,1009.67 1218.5,916.5C 1217.51,916.328 1216.84,916.662 1216.5,917.5C 1165.03,942.403 1114.03,968.07 1063.5,994.5C 1063.83,1087.84 1063.5,1181.17 1062.5,1274.5C 1051.14,1280.18 1039.81,1285.85 1028.5,1291.5C 1004.85,1302.66 981.516,1314.33 958.5,1326.5C 925.399,1342.55 892.399,1358.88 859.5,1375.5C 820.601,1355.88 781.601,1336.55 742.5,1317.5C 723.484,1307.33 704.151,1297.66 684.5,1288.5C 627.027,1259.6 569.36,1230.93 511.5,1202.5C 492.484,1192.33 473.151,1182.66 453.5,1173.5C 433.616,1163.64 413.782,1153.64 394,1143.5C 393.333,993.833 393.333,844.167 394,694.5C 522.511,760.089 651.177,825.422 780,890.5C 904.298,753.867 1028.96,617.534 1154,481.5C 1222.91,516.372 1291.74,551.372 1360.5,586.5C 1361.33,590.459 1361.83,594.459 1362,598.5C 1362.83,774.168 1362.67,949.834 1361.5,1125.5C 1343.47,1134.51 1325.47,1143.51 1307.5,1152.5 Z"/></g>
<g><path style="opacity:0.885" fill="#f78618" d="M 504.5,332.5 C 484.706,323.103 465.039,313.436 445.5,303.5C 445.369,302.761 445.536,302.094 446,301.5C 465.089,311.295 484.256,320.961 503.5,330.5C 504.298,330.957 504.631,331.624 504.5,332.5 Z"/></g>
<g><path style="opacity:0.884" fill="#f78718" d="M 1498.5,655.5 C 1517.38,663.938 1536.04,672.938 1554.5,682.5C 1555.3,682.957 1555.63,683.624 1555.5,684.5C 1536.02,675.596 1517.02,665.929 1498.5,655.5 Z"/></g>
<g><path style="opacity:0.502" fill="#f6821b" d="M 1218.5,916.5 C 1218.83,1009.67 1219.83,1102.67 1221.5,1195.5C 1220.79,1196.4 1219.79,1196.74 1218.5,1196.5C 1218.5,1103.17 1218.5,1009.83 1218.5,916.5 Z"/></g>
<g><path style="opacity:0.887" fill="#f78718" d="M 1216.5,917.5 C 1217.74,917.81 1217.74,918.31 1216.5,919C 1165.71,944.727 1114.71,969.894 1063.5,994.5C 1114.03,968.07 1165.03,942.403 1216.5,917.5 Z"/></g>
<g><path style="opacity:0.886" fill="#f78717" d="M 1307.5,1152.5 C 1307.61,1153.12 1307.94,1153.62 1308.5,1154C 1285.13,1165.1 1261.97,1176.6 1239,1188.5C 1238.62,1187.94 1238.12,1187.61 1237.5,1187.5C 1260.52,1175.33 1283.85,1163.66 1307.5,1152.5 Z"/></g>
<g><path style="opacity:0.886" fill="#f78717" d="M 453.5,1173.5 C 473.151,1182.66 492.484,1192.33 511.5,1202.5C 510.883,1202.61 510.383,1202.94 510,1203.5C 491.034,1193.6 471.867,1184.1 452.5,1175C 453.056,1174.62 453.389,1174.12 453.5,1173.5 Z"/></g>
<g><path style="opacity:0.891" fill="#f78618" d="M 1406.5,1275.5 C 1397.31,1281.26 1387.65,1286.26 1377.5,1290.5C 1377.37,1289.62 1377.7,1288.96 1378.5,1288.5C 1387.94,1283.43 1397.27,1279.1 1406.5,1275.5 Z"/></g>
<g><path style="opacity:0.876" fill="#f78618" d="M 684.5,1288.5 C 704.151,1297.66 723.484,1307.33 742.5,1317.5C 723.185,1309.34 704.185,1300.34 685.5,1290.5C 684.702,1290.04 684.369,1289.38 684.5,1288.5 Z"/></g>
<g><path style="opacity:0.886" fill="#f78717" d="M 1028.5,1291.5 C 1028.61,1292.12 1028.94,1292.62 1029.5,1293C 1006.13,1304.1 982.966,1315.6 960,1327.5C 959.617,1326.94 959.117,1326.61 958.5,1326.5C 981.516,1314.33 1004.85,1302.66 1028.5,1291.5 Z"/></g>
<g><path style="opacity:0.891" fill="#f78618" d="M 1291.5,1333.5 C 1282.31,1339.26 1272.65,1344.26 1262.5,1348.5C 1262.37,1347.62 1262.7,1346.96 1263.5,1346.5C 1272.94,1341.43 1282.27,1337.1 1291.5,1333.5 Z"/></g>
<g><path style="opacity:0.891" fill="#f78618" d="M 1176.5,1391.5 C 1167.31,1397.26 1157.65,1402.26 1147.5,1406.5C 1147.37,1405.62 1147.7,1404.96 1148.5,1404.5C 1157.94,1399.43 1167.27,1395.1 1176.5,1391.5 Z"/></g>
</svg>
